<?xml version="1.0" standalone="no"?>
<!DOCTYPE svg PUBLIC "-//W3C//DTD SVG 20010904//EN"
 "http://www.w3.org/TR/2001/REC-SVG-20010904/DTD/svg10.dtd">
<svg version="1.0" xmlns="http://www.w3.org/2000/svg"
 width="701.000000pt" height="453.000000pt" viewBox="0 0 701.000000 453.000000"
 preserveAspectRatio="xMidYMid meet">

<g transform="translate(0.000000,453.000000) scale(0.100000,-0.100000)"
fill="#000000" stroke="none">
<path d="M0 2265 l0 -2265 3505 0 3505 0 0 2265 0 2265 -3505 0 -3505 0 0
-2265z m4180 655 c0 -35 -3 -40 -22 -40 -13 0 -45 11 -72 25 -30 15 -66 25
-93 25 -32 0 -43 4 -43 15 0 12 19 15 115 15 l115 0 0 -40z m-210 -596 c0 -8
-4 -14 -10 -14 -5 0 -10 9 -10 21 0 11 5 17 10 14 6 -3 10 -13 10 -21z m1020
-344 c0 -28 -3 -30 -35 -30 -32 0 -35 2 -35 30 0 28 3 30 35 30 32 0 35 -2 35
-30z m258 -71 c46 -16 62 -60 62 -168 l0 -91 -35 0 -35 0 0 74 c0 99 -11 126
-49 126 -49 0 -71 -38 -71 -126 l0 -74 -35 0 -35 0 0 130 0 130 35 0 c29 0 35
-4 35 -22 l0 -21 23 20 c37 34 58 38 105 22z m285 -3 c15 -8 27 -11 27 -5 0 5
18 9 41 9 l41 0 -4 -149 c-3 -141 -4 -151 -27 -175 -27 -28 -104 -49 -151 -40
-25 5 -30 11 -30 34 0 27 2 28 49 27 53 -1 81 14 81 45 0 15 -3 17 -19 8 -28
-14 -87 -12 -120 5 -35 17 -61 70 -61 122 0 93 95 159 173 119z m-543 -126 l0
-130 -35 0 -35 0 0 130 0 130 35 0 35 0 0 -130z"/>
<path d="M5450 1830 c-26 -26 -25 -60 1 -94 24 -31 68 -35 92 -8 21 23 22 86
1 106 -22 22 -70 20 -94 -4z"/>
</g>
</svg>
